<svg id="Capa_1" enable-background="new 0 0 512.094 512.094" height="512" viewBox="0 0 512.094 512.094" width="512" xmlns="http://www.w3.org/2000/svg"><g><path d="m498.862 13.16c-17.546-17.545-46.095-17.545-63.634-.006l-179.311 179.112-179.055-179.106c-17.545-17.545-46.094-17.546-63.64 0-17.545 17.545-17.545 46.094-.001 63.638l179.149 179.201-43.762 43.762-21.213-21.213-21.213 21.213 21.213 21.213-127.28 127.279 63.64 63.639 42.426-42.426 21.213 21.213 21.213-21.213-21.213-21.213 21.213-21.213 21.213 21.213 21.213-21.213-21.213-21.213 21.213-21.213 21.213 21.213 21.213-21.213-21.213-21.213 43.754-43.753 43.92 43.933-21.233 21.233 21.213 21.213 21.23-21.23 127.261 127.298 63.64-63.64-42.42-42.433 21.208-21.208-21.212-21.214-21.206 21.206-21.21-21.216 21.202-21.202-21.213-21.213-21.199 21.199-21.21-21.216 21.196-21.196-21.213-21.213-21.193 21.193-44.013-44.026 179.314-179.117c17.545-17.545 17.545-46.094 0-63.639zm-435.107 456.306-21.213-21.213 106.066-106.066 21.213 21.213zm127.279-127.279-21.213-21.213 43.759-43.759 21.21 21.216zm278.574 106.265-21.213 21.213-106.051-106.082 21.213-21.213zm-127.261-127.298-21.213 21.213-286.698-286.781c-5.849-5.849-5.849-15.365 0-21.213 5.846-5.846 15.363-5.851 21.212-.002zm135.308-265.574-179.318 179.118-21.21-21.216 179.308-179.109c5.849-5.849 15.365-5.849 21.213 0 5.849 5.849 5.849 15.365.007 21.207z"/></g></svg>